{
  "accessors": [
    {
      "bufferView": 2,
      "componentType": 5126,
      "count": 2244,
      "max": [
        0.4778909981250763,
        1.0730509757995605,
        0.28185299038887024
      ],
      "min": [
        -0.4972609877586365,
        -0.7270489931106567,
        -0.5144789814949036
      ],
      "type": "VEC3"
    },
    {
      "bufferView": 2,
      "byteOffset": 26928,
      "componentType": 5126,
      "count": 2244,
      "max": [
        0.9999555349349976,
        0.9974467158317566,
        0.9991884231567383
      ],
      "min": [
        -0.9972599744796753,
        -0.999849259853363,
        -0.9995223879814148
      ],
      "type": "VEC3"
    },
    {
      "bufferView": 1,
      "componentType": 5126,
      "count": 2244,
      "max": [
        0.9899340271949768,
        0.9916120171546936
      ],
      "min": [
        0.0,
        0.0
      ],
      "type": "VEC2"
    },
    {
      "bufferView": 0,
      "componentType": 5125,
      "count": 11679,
      "type": "SCALAR"
    },
    {
      "bufferView": 2,
      "byteOffset": 53856,
      "componentType": 5126,
      "count": 22,
      "max": [
        0.03811600059270859,
        0.03964100033044815,
        0.5397059917449951
      ],
      "min": [
        -0.2751680016517639,
        -0.44919899106025696,
        0.18693900108337402
      ],
      "type": "VEC3"
    },
    {
      "bufferView": 2,
      "byteOffset": 54120,
      "componentType": 5126,
      "count": 22,
      "max": [
        0.8660884499549866,
        0.6517138481140137,
        0.8513684272766113
      ],
      "min": [
        -0.8900184631347656,
        -0.738593339920044,
        -0.8513684272766113
      ],
      "type": "VEC3"
    },
    {
      "bufferView": 1,
      "byteOffset": 17952,
      "componentType": 5126,
      "count": 22,
      "max": [
        0.9877470135688782,
        0.6212810277938843
      ],
      "min": [
        0.8541659712791443,
        0.5590779781341553
      ],
      "type": "VEC2"
    },
    {
      "bufferView": 0,
      "byteOffset": 46716,
      "componentType": 5125,
      "count": 48,
      "type": "SCALAR"
    },
    {
      "bufferView": 2,
      "byteOffset": 54384,
      "componentType": 5126,
      "count": 749,
      "max": [
        0.3517340123653412,
        0.2656109929084778,
        1.0903340578079224
      ],
      "min": [
        -0.35728099942207336,
        -0.2238440066576004,
        0.5373899936676025
      ],
      "type": "VEC3"
    },
    {
      "bufferView": 2,
      "byteOffset": 63372,
      "componentType": 5126,
      "count": 749,
      "max": [
        0.9926158785820007,
        0.9960295557975769,
        0.9813916087150574
      ],
      "min": [
        -0.998191773891449,
        -0.9891418218612671,
        -0.996198832988739
      ],
      "type": "VEC3"
    },
    {
      "bufferView": 1,
      "byteOffset": 18128,
      "componentType": 5126,
      "count": 749,
      "max": [
        0.4960939884185791,
        0.999538004398346
      ],
      "min": [
        0.002191999927163124,
        0.007600000128149986
      ],
      "type": "VEC2"
    },
    {
      "bufferView": 0,
      "byteOffset": 46908,
      "componentType": 5125,
      "count": 1692,
      "type": "SCALAR"
    },
    {
      "bufferView": 2,
      "byteOffset": 72360,
      "componentType": 5126,
      "count": 1468,
      "max": [
        0.217617005109787,
        0.38148900866508484,
        0.5967680215835571
      ],
      "min": [
        -0.20926299691200256,
        -0.3546540141105652,
        0.14887699484825134
      ],
      "type": "VEC3"
    },
    {
      "bufferView": 2,
      "byteOffset": 89976,
      "componentType": 5126,
      "count": 1468,
      "max": [
        0.9995704293251038,
        0.9994106292724609,
        0.99906325340271
      ],
      "min": [
        -0.9993023872375488,
        -0.999517023563385,
        -0.999893307685852
      ],
      "type": "VEC3"
    },
    {
      "bufferView": 1,
      "byteOffset": 24120,
      "componentType": 5126,
      "count": 1468,
      "max": [
        0.9974799752235413,
        0.9969320297241211
      ],
      "min": [
        0.12841199338436127,
        0.0032889998983591795
      ],
      "type": "VEC2"
    },
    {
      "bufferView": 0,
      "byteOffset": 53676,
      "componentType": 5125,
      "count": 5922,
      "type": "SCALAR"
    }
  ],
  "asset": {
    "extras": {
      "author": "Antouss (https://sketchfab.com/antouss)",
      "license": "CC-BY-4.0 (http://creativecommons.org/licenses/by/4.0/)",
      "source": "https://sketchfab.com/3d-models/son-goku-and-kintoun-nimbus-0e05229282e644ab978d7d9c09ab4ec2",
      "title": "Son Goku and Kintoun Nimbus"
    },
    "generator": "Sketchfab-13.74.0",
    "version": "2.0"
  },
  "bufferViews": [
    {
      "buffer": 0,
      "byteLength": 77364,
      "name": "floatBufferViews",
      "target": 34963
    },
    {
      "buffer": 0,
      "byteLength": 35864,
      "byteOffset": 77364,
      "byteStride": 8,
      "name": "floatBufferViews",
      "target": 34962
    },
    {
      "buffer": 0,
      "byteLength": 107592,
      "byteOffset": 113228,
      "byteStride": 12,
      "name": "floatBufferViews",
      "target": 34962
    }
  ],
  "buffers": [
    {
      "byteLength": 220820,
      "uri": "scene.bin"
    }
  ],
  "extensionsUsed": [
    "KHR_materials_unlit"
  ],
  "images": [
    {
      "uri": "textures/7_-nimbus_0_0_0_baseColor.png"
    },
    {
      "uri": "textures/7_-staffhand_0.1_16_16_baseColor.png"
    }
  ],
  "materials": [
    {
      "doubleSided": true,
      "extensions": {
        "KHR_materials_unlit": {}
      },
      "name": "7_-nimbus_0_0_0",
      "pbrMetallicRoughness": {
        "baseColorTexture": {
          "index": 0
        },
        "metallicFactor": 0.0
      }
    },
    {
      "doubleSided": true,
      "extensions": {
        "KHR_materials_unlit": {}
      },
      "name": "7_-staffhand_0.1_16_16",
      "pbrMetallicRoughness": {
        "baseColorTexture": {
          "index": 1
        },
        "metallicFactor": 0.0
      }
    },
    {
      "doubleSided": true,
      "extensions": {
        "KHR_materials_unlit": {}
      },
      "name": "7_body_0.1_16_16",
      "pbrMetallicRoughness": {
        "baseColorTexture": {
          "index": 1
        },
        "metallicFactor": 0.0
      }
    },
    {
      "doubleSided": true,
      "extensions": {
        "KHR_materials_unlit": {}
      },
      "name": "7_head_0.1_16_16",
      "pbrMetallicRoughness": {
        "baseColorTexture": {
          "index": 1
        },
        "metallicFactor": 0.0
      }
    }
  ],
  "meshes": [
    {
      "name": "Object_0",
      "primitives": [
        {
          "attributes": {
            "NORMAL": 1,
            "POSITION": 0,
            "TEXCOORD_0": 2
          },
          "indices": 3,
          "material": 0,
          "mode": 4
        }
      ]
    },
    {
      "name": "Object_1",
      "primitives": [
        {
          "attributes": {
            "NORMAL": 5,
            "POSITION": 4,
            "TEXCOORD_0": 6
          },
          "indices": 7,
          "material": 1,
          "mode": 4
        }
      ]
    },
    {
      "name": "Object_2",
      "primitives": [
        {
          "attributes": {
            "NORMAL": 9,
            "POSITION": 8,
            "TEXCOORD_0": 10
          },
          "indices": 11,
          "material": 3,
          "mode": 4
        }
      ]
    },
    {
      "name": "Object_3",
      "primitives": [
        {
          "attributes": {
            "NORMAL": 13,
            "POSITION": 12,
            "TEXCOORD_0": 14
          },
          "indices": 15,
          "material": 2,
          "mode": 4
        }
      ]
    }
  ],
  "nodes": [
    {
      "children": [
        1
      ],
      "matrix": [
        1.0,
        0.0,
        0.0,
        0.0,
        0.0,
        2.220446049250313e-16,
        -1.0,
        0.0,
        0.0,
        1.0,
        2.220446049250313e-16,
        0.0,
        0.0,
        0.0,
        0.0,
        1.0
      ],
      "name": "Sketchfab_model"
    },
    {
      "children": [
        2,
        3,
        4,
        5
      ],
      "name": "Goku Diorama.obj.cleaner.materialmerger.gles"
    },
    {
      "mesh": 0,
      "name": "Object_2"
    },
    {
      "mesh": 1,
      "name": "Object_3"
    },
    {
      "mesh": 2,
      "name": "Object_4"
    },
    {
      "mesh": 3,
      "name": "Object_5"
    }
  ],
  "samplers": [
    {
      "magFilter": 9729,
      "minFilter": 9987,
      "wrapS": 10497,
      "wrapT": 10497
    }
  ],
  "scene": 0,
  "scenes": [
    {
      "name": "Sketchfab_Scene",
      "nodes": [
        0
      ]
    }
  ],
  "textures": [
    {
      "sampler": 0,
      "source": 0
    },
    {
      "sampler": 0,
      "source": 1
    }
  ]
}
